<svg width="510" height="510" viewBox="0 0 510 510" fill="none" xmlns="http://www.w3.org/2000/svg">
<path d="M212.31 297.121C212.31 319.091 196.373 326.036 176.792 326.036H125.451V265.815H177.817C198.991 265.929 212.31 274.694 212.31 297.121ZM203.545 203.431C203.545 183.281 187.949 178.5 170.645 178.5H125.565V229.5H174.174C191.364 229.5 203.545 221.987 203.545 203.431ZM354.154 229.842C333.321 229.842 319.433 242.819 318.067 263.652H388.875C386.94 242.592 376.011 229.842 354.154 229.842ZM510 54.6429V455.357C510 485.525 485.525 510 455.357 510H54.6429C24.4754 510 0 485.525 0 455.357V54.6429C0 24.4754 24.4754 0 54.6429 0H455.357C485.525 0 510 24.4754 510 54.6429ZM309.301 174.174H397.868V152.658H309.301V174.174ZM260.35 299.739C260.35 272.304 247.373 248.625 220.507 240.998C240.087 231.663 250.333 220.848 250.333 198.877C250.333 155.391 217.888 144.804 180.435 144.804H77.4107V363.375H183.395C223.125 363.147 260.35 344.136 260.35 299.739ZM432.589 282.891C432.589 236.103 405.154 197.056 355.634 197.056C307.366 197.056 274.694 233.257 274.694 280.842C274.694 330.134 305.772 363.944 355.634 363.944C393.429 363.944 417.904 346.982 429.743 310.667H391.379C387.167 324.214 370.205 331.272 357 331.272C331.5 331.272 318.181 316.359 318.181 291.087H432.248C432.362 288.469 432.589 285.623 432.589 282.891Z" fill="#13293D"/>
<path fill-rule="evenodd" clip-rule="evenodd" d="M260.35 299.739C260.35 272.304 247.373 248.625 220.507 240.998C240.087 231.663 250.333 220.848 250.333 198.877C250.333 155.391 217.888 144.804 180.435 144.804H77.4107V363.375H183.395C223.125 363.147 260.35 344.136 260.35 299.739ZM176.792 326.036C196.373 326.036 212.31 319.091 212.31 297.121C212.31 274.694 198.991 265.929 177.817 265.815H125.451V326.036H176.792ZM170.645 178.5C187.949 178.5 203.545 183.281 203.545 203.431C203.545 221.987 191.364 229.5 174.174 229.5H125.565V178.5H170.645Z" fill="#FCFCFD"/>
<path fill-rule="evenodd" clip-rule="evenodd" d="M432.589 282.891C432.589 236.103 405.154 197.056 355.634 197.056C307.366 197.056 274.694 233.257 274.694 280.842C274.694 330.134 305.772 363.944 355.634 363.944C393.429 363.944 417.904 346.982 429.743 310.667H391.379C387.167 324.214 370.205 331.272 357 331.272C331.5 331.272 318.181 316.359 318.181 291.087H432.248C432.362 288.469 432.589 285.623 432.589 282.891ZM318.067 263.652C319.433 242.819 333.321 229.842 354.154 229.842C376.011 229.842 386.94 242.592 388.875 263.652H318.067Z" fill="#FCFCFD"/>
<path d="M309.301 174.174H397.868V152.658H309.301V174.174Z" fill="#FCFCFD"/>
</svg>
