<svg width="507" height="512" viewBox="0 0 507 512" fill="none" xmlns="http://www.w3.org/2000/svg">
<path fill-rule="evenodd" clip-rule="evenodd" d="M506.5 160H378.5C360.8 160 346.5 145.7 346.504 128L346.5 0H48C21.49 0 0 21.49 0 48V464C0 490.5 21.49 512 48 512H458.5C485.01 512 506.5 490.51 506.5 464V160ZM312.534 345.9L273.534 385V282.9C273.534 269.65 262.784 258.9 249.534 258.9C236.284 258.9 225.534 269.7 225.534 282.9V385L185.634 345.9C181.834 341.2 175.734 338.9 169.534 338.9C163.334 338.9 157.254 341.2 152.564 345.9C143.189 355.275 143.189 370.46 152.564 379.84L232.564 459.84C241.939 469.215 257.124 469.215 266.504 459.84L346.504 379.84C355.879 370.465 355.879 355.28 346.504 345.9C337.129 336.52 321.934 336.6 312.534 345.9ZM506.5 128H378.5V0L506.5 128ZM122.016 159.352C141.168 159.352 158.976 151.456 170.904 137.68L151.248 120.544C144.192 128.944 133.608 133.816 122.016 133.816C100.176 133.816 83.544 117.184 83.544 95.176C83.544 73.168 100.008 56.536 122.016 56.536C133.608 56.536 144.36 61.408 151.248 69.808L170.904 52.672C158.976 38.896 141.168 31 122.016 31C85.56 31 57 59.056 57 95.176C57 131.128 85.56 159.352 122.016 159.352ZM241.002 106.768L208.074 32.68H179.178L241.002 160.528L302.49 32.68H273.594L241.002 106.768Z" fill="#13293D"/>
<path d="M170.904 137.68C158.976 151.456 141.168 159.352 122.016 159.352C85.56 159.352 57 131.128 57 95.176C57 59.056 85.56 31 122.016 31C141.168 31 158.976 38.896 170.904 52.672L151.248 69.808C144.36 61.408 133.608 56.536 122.016 56.536C100.008 56.536 83.544 73.168 83.544 95.176C83.544 117.184 100.176 133.816 122.016 133.816C133.608 133.816 144.192 128.944 151.248 120.544L170.904 137.68Z" fill="#FCFCFD"/>
<path d="M208.074 32.68L241.002 106.768L273.594 32.68H302.49L241.002 160.528L179.178 32.68H208.074Z" fill="#FCFCFD"/>
<path d="M273.534 385L312.534 345.9C321.934 336.6 337.129 336.52 346.504 345.9C355.879 355.28 355.879 370.465 346.504 379.84L266.504 459.84C257.124 469.215 241.939 469.215 232.564 459.84L152.564 379.84C143.189 370.46 143.189 355.275 152.564 345.9C157.254 341.2 163.334 338.9 169.534 338.9C175.734 338.9 181.834 341.2 185.634 345.9L225.534 385V282.9C225.534 269.7 236.284 258.9 249.534 258.9C262.784 258.9 273.534 269.65 273.534 282.9V385Z" fill="#FCFCFD"/>
</svg>
